<svg xmlns="http://www.w3.org/2000/svg" xmlns:xlink="http://www.w3.org/1999/xlink" preserveAspectRatio="xMidYMid" width="29" height="21" viewBox="0 0 29 21">
  <defs>
    <style>

      .cls-2 {
        fill: #f8f8f8;
      }
    </style>
  </defs>
  <path d="M1.554,21.011 C0.098,21.011 0.012,20.924 0.012,19.510 C0.012,19.510 0.012,1.509 0.012,1.509 C0.012,0.180 0.098,0.009 1.554,0.009 C1.554,0.009 14.345,0.009 14.345,0.009 C14.345,0.009 12.031,2.259 12.031,2.259 C12.031,2.259 2.325,2.259 2.325,2.259 C2.325,2.259 2.325,18.759 2.325,18.759 C2.325,18.759 23.147,18.759 23.147,18.759 C23.147,18.759 23.147,17.073 23.147,17.073 C23.147,17.073 25.461,15.142 25.461,15.142 C25.461,15.142 25.461,19.510 25.461,19.510 C25.461,21.011 25.344,21.011 23.918,21.011 C23.918,21.011 1.554,21.011 1.554,21.011 ZM23.147,8.366 C23.147,8.366 22.495,8.269 22.495,8.269 C21.813,8.165 21.127,8.112 20.455,8.112 C16.414,8.112 13.480,9.957 11.806,11.399 C12.118,9.788 12.856,7.554 14.605,5.813 C16.451,3.974 19.068,3.030 22.381,3.010 C22.381,3.010 23.147,3.005 23.147,3.005 C23.147,3.005 23.147,0.322 23.147,0.322 C23.147,0.322 28.997,6.011 28.997,6.011 C28.997,6.011 23.147,11.699 23.147,11.699 C23.147,11.699 23.147,8.366 23.147,8.366 Z" id="path-1" class="cls-2" fill-rule="evenodd"/>
</svg>
